#define 1616547352935_width 22
#define 1616547352935_height 22
static char 1616547352935_bits[] = {
  0xFF, 0xFF, 0x3F, 0xFF, 0xFF, 0x3F, 0x1F, 0x00, 0x3C, 0xDF, 0xFF, 0x3D, 
  0x5F, 0x10, 0x3D, 0x5F, 0x55, 0x3D, 0x5F, 0x45, 0x3D, 0xDF, 0xFF, 0x3D, 
  0x7F, 0x00, 0x3F, 0x5F, 0x7F, 0x3D, 0x7F, 0x71, 0x3F, 0x5F, 0x77, 0x3D, 
  0x7F, 0x7F, 0x3F, 0x5F, 0x71, 0x3D, 0x7F, 0x75, 0x3F, 0x5F, 0x7F, 0x3D, 
  0x7F, 0x7F, 0x3F, 0x5F, 0x00, 0x3D, 0xFF, 0xFF, 0x3F, 0x5F, 0x55, 0x3D, 
  0xFF, 0xFF, 0x3F, 0xFF, 0xFF, 0x3F, };
